<svg width="138" height="30" viewBox="0 0 138 30" fill="none" xmlns="http://www.w3.org/2000/svg">
<path d="M32.0312 11.2432H37.5031C38.222 11.2432 38.9042 11.3141 39.5504 11.4559C40.196 11.5978 40.7615 11.834 41.2481 12.1652C41.7341 12.4964 42.1197 12.942 42.4061 13.5025C42.692 14.0631 42.8358 14.7621 42.8358 15.5995C42.8358 16.6125 42.5764 17.4733 42.0571 18.1826C41.5379 18.8919 40.779 19.3409 39.7804 19.5302L43.3754 25.5882H39.6406L36.685 19.8545H35.1475V25.5882H32.0318V11.2432H32.0312ZM35.1464 17.1799H36.9839C37.2635 17.1799 37.5595 17.1696 37.8724 17.1496C38.1854 17.1296 38.4684 17.0683 38.721 16.9671C38.9736 16.8659 39.1833 16.7074 39.3502 16.4912C39.5166 16.2756 39.6 15.9713 39.6 15.5794C39.6 15.2145 39.5267 14.9245 39.3801 14.7083C39.2335 14.4927 39.0469 14.3268 38.8208 14.2118C38.5941 14.0974 38.3348 14.0196 38.0416 13.979C37.7484 13.9384 37.4625 13.9184 37.1829 13.9184H35.1458V17.1799H35.1464Z" fill="white"/>
<path d="M53.5202 11.2432H56.0963L62.2476 25.5876H58.7327L57.5143 22.5486H52.0221L50.8437 25.5876H47.4089L53.5202 11.2432ZM54.7183 15.417L53.0009 19.8745H56.456L54.7183 15.417Z" fill="white"/>
<path d="M67.5593 11.2432H72.8316C73.4439 11.2432 74.0596 11.2872 74.6787 11.3747C75.2978 11.4628 75.8537 11.6378 76.3465 11.9015C76.8387 12.1646 77.2385 12.533 77.5446 13.0055C77.8508 13.4785 78.0041 14.1066 78.0041 14.8896C78.0041 15.7001 77.7809 16.3722 77.3349 16.9053C76.8889 17.439 76.2997 17.8205 75.5673 18.0499V18.0905C76.033 18.158 76.4559 18.2901 76.8353 18.4857C77.2148 18.6819 77.5407 18.9313 77.8141 19.2356C78.087 19.5394 78.2968 19.894 78.4434 20.2995C78.5899 20.7045 78.6632 21.1369 78.6632 21.5962C78.6632 22.353 78.5037 22.9839 78.184 23.4907C77.8643 23.9969 77.4516 24.4059 76.9458 24.7165C76.4395 25.0276 75.8706 25.2501 75.238 25.3851C74.6054 25.5201 73.9762 25.5876 73.3509 25.5876H67.5593V11.2432ZM70.675 16.9768H72.932C73.1716 16.9768 73.4079 16.9499 73.6407 16.8956C73.8736 16.8418 74.0833 16.7537 74.2699 16.6325C74.456 16.5112 74.606 16.3488 74.7193 16.1463C74.8321 15.9438 74.889 15.7007 74.889 15.417C74.889 15.1201 74.8259 14.8736 74.6996 14.6774C74.5727 14.4818 74.4098 14.3296 74.2102 14.2215C74.0106 14.1134 73.7839 14.0362 73.5313 13.9887C73.2782 13.9418 73.0318 13.9178 72.7922 13.9178H70.675V16.9768ZM70.675 22.9136H73.471C73.7106 22.9136 73.9536 22.8867 74.2 22.8323C74.4464 22.7786 74.6691 22.6836 74.8687 22.5486C75.0683 22.4136 75.2313 22.238 75.3581 22.0218C75.4844 21.8056 75.5476 21.5425 75.5476 21.2313C75.5476 20.8938 75.4641 20.6204 75.2978 20.4105C75.1309 20.2012 74.9217 20.0427 74.6686 19.9346C74.4154 19.8265 74.1425 19.7521 73.8499 19.7115C73.5567 19.6709 73.2838 19.6509 73.0312 19.6509H70.6744V22.9136H70.675Z" fill="white"/>
<path d="M84.395 11.2432H89.6673C90.2796 11.2432 90.8953 11.2872 91.5144 11.3747C92.1335 11.4628 92.6894 11.6378 93.1822 11.9015C93.6744 12.1646 94.0742 12.533 94.3803 13.0055C94.6865 13.4785 94.8398 14.1066 94.8398 14.8896C94.8398 15.7001 94.6166 16.3722 94.1706 16.9053C93.7246 17.439 93.1354 17.8205 92.403 18.0499V18.0905C92.8687 18.158 93.2916 18.2901 93.671 18.4857C94.0505 18.6819 94.3764 18.9313 94.6498 19.2356C94.9227 19.5394 95.1324 19.894 95.279 20.2995C95.4256 20.7045 95.4989 21.1369 95.4989 21.5962C95.4989 22.353 95.3394 22.9839 95.0197 23.4907C94.7 23.9969 94.2873 24.4059 93.7815 24.7165C93.2752 25.0276 92.7063 25.2501 92.0743 25.3851C91.4417 25.5201 90.8124 25.5876 90.1872 25.5876H84.3956V11.2432H84.395ZM87.5107 16.9768H89.7677C90.0073 16.9768 90.2435 16.9499 90.4764 16.8956C90.7093 16.8418 90.919 16.7537 91.1056 16.6325C91.2917 16.5112 91.4417 16.3488 91.555 16.1463C91.6678 15.9438 91.7247 15.7007 91.7247 15.417C91.7247 15.1201 91.6616 14.8736 91.5353 14.6774C91.4084 14.4818 91.2455 14.3296 91.0459 14.2215C90.8463 14.1134 90.6196 14.0362 90.367 13.9887C90.1139 13.9418 89.8675 13.9178 89.6279 13.9178H87.5107V16.9768ZM87.5107 22.9136H90.3067C90.5463 22.9136 90.7893 22.8867 91.0357 22.8323C91.2821 22.7786 91.5048 22.6836 91.7044 22.5486C91.904 22.4136 92.0669 22.238 92.1938 22.0218C92.3201 21.8056 92.3832 21.5425 92.3832 21.2313C92.3832 20.8938 92.2998 20.6204 92.1335 20.4105C91.9666 20.2012 91.7574 20.0427 91.5043 19.9346C91.2511 19.8265 90.9782 19.7521 90.6856 19.7115C90.3924 19.6709 90.1195 19.6509 89.8669 19.6509H87.5101V22.9136H87.5107Z" fill="white"/>
<path d="M101.191 11.2432H104.307V25.5876H101.191V11.2432Z" fill="white"/>
<path d="M113.772 14.0391H109.738V11.2432H120.922V14.0391H116.888V25.5876H113.772V14.0391Z" fill="white"/>
<path d="M14.5448 20.2624C14.1462 19.3958 13.698 18.5172 13.6484 17.5626C13.5779 16.2138 14.3047 14.9754 14.9203 13.7777C15.1098 13.4093 15.2902 13.037 15.4622 12.66C13.7081 10.9292 12.2845 8.85568 11.2882 6.58887C10.3855 8.24593 9.7236 10.0368 9.34809 11.8918H8.65684C7.71639 7.2438 4.97734 2.99503 1.15632 0.258042C-0.246475 -0.746379 0.0811062 1.64112 0.109861 2.38757C0.160605 3.71746 0.309455 5.04277 0.553026 6.35035C1.03453 8.93347 1.88647 11.4457 3.08459 13.7771C3.70028 14.9749 4.42705 16.2132 4.35657 17.562C4.30639 18.5166 3.85872 19.3958 3.46009 20.2618C2.73502 21.8376 2.14526 23.4781 1.7004 25.1575C1.61132 25.4944 1.52731 25.8462 1.59215 26.1882C1.67278 26.6149 1.9716 26.9621 2.27832 27.2659C3.68393 28.6592 5.50902 29.611 7.4435 29.9605C7.85453 30.0349 8.3693 30.0366 8.58186 29.6722C8.82092 29.2621 8.46402 28.7502 8.07103 28.4888C7.67805 28.2268 6.99244 27.7938 7.01725 27.5787C7.08716 27.1429 8.18549 28.0215 8.90493 28.1004C8.90549 28.1004 8.90605 28.1004 8.90605 28.1004C8.92748 28.1027 8.9489 28.1044 8.96977 28.105C8.97033 28.105 8.97089 28.105 8.97146 28.105C8.97597 28.105 8.98048 28.105 8.98442 28.105C8.99063 28.105 8.99626 28.1055 9.00247 28.1055C9.00811 28.1055 9.01431 28.1055 9.02051 28.105C9.02502 28.105 9.02953 28.105 9.03404 28.105C9.0346 28.105 9.03517 28.105 9.03573 28.105C9.05659 28.1044 9.07802 28.1027 9.09944 28.1004C9.10001 28.1004 9.10057 28.1004 9.10057 28.1004C9.82057 28.0215 10.9183 27.1429 10.9882 27.5787C11.0136 27.7938 10.3274 28.2274 9.93447 28.4888C9.54148 28.7508 9.18458 29.2621 9.42364 29.6722C9.6362 30.0366 10.151 30.0349 10.562 29.9605C12.4965 29.611 14.3216 28.6592 15.7272 27.2659C16.0333 26.9621 16.3322 26.6149 16.4133 26.1882C16.4782 25.8456 16.3942 25.4938 16.3051 25.1575C15.8597 23.4787 15.2699 21.8388 14.5448 20.2624Z" fill="#E73747"/>
<path d="M18.5731 7.8809C18.4657 7.24924 18.3396 6.62186 18.1948 6H11.8286C13.1581 9.3452 15.2969 12.2958 17.9835 14.4065C19.3531 15.4823 19.0333 12.925 19.0052 12.1255C18.9562 10.7017 18.8109 9.28147 18.5731 7.8809Z" fill="white"/>
<path d="M131.161 15.0938L128.781 11.2432H125.103L129.289 18.0144L131.161 15.0938Z" fill="white"/>
<path d="M131.567 21.6998L133.971 25.5882H137.649L133.439 18.7792L131.567 21.6998Z" fill="white"/>
<path d="M128.64 25.3333L138 11.3333H134.217L124.857 25.3333H128.64Z" fill="#E73747"/>
</svg>
